<svg xmlns="http://www.w3.org/2000/svg" xmlns:xlink="http://www.w3.org/1999/xlink" contentStyleType="text/css" data-diagram-type="CLASS" height="718px" preserveAspectRatio="none" style="width:703px;height:718px;background:#FFFFFF;" version="1.1" viewBox="0 0 703 718" width="703px" zoomAndPan="magnify"><defs/><g><!--class Genres--><g class="entity" data-entity="Genres" data-source-line="3" data-uid="ent0002" id="entity_Genres"><rect fill="#F1F1F1" height="96.8906" rx="2.5" ry="2.5" style="stroke:#181818;stroke-width:0.5;" width="157.0928" x="270.69" y="7"/><ellipse cx="319.9874" cy="23" fill="#ADD1B2" rx="11" ry="11" style="stroke:#181818;stroke-width:1;"/><path d="M322.9561,28.6406 Q322.378,28.9375 321.7374,29.0781 Q321.0967,29.2344 320.3936,29.2344 Q317.8936,29.2344 316.5655,27.5938 Q315.253,25.9375 315.253,22.8125 Q315.253,19.6875 316.5655,18.0313 Q317.8936,16.375 320.3936,16.375 Q321.0967,16.375 321.7374,16.5313 Q322.3936,16.6875 322.9561,16.9844 L322.9561,19.7031 Q322.3311,19.125 321.7374,18.8594 Q321.1436,18.5781 320.5186,18.5781 Q319.1749,18.5781 318.4874,19.6563 Q317.7999,20.7188 317.7999,22.8125 Q317.7999,24.9063 318.4874,25.9844 Q319.1749,27.0469 320.5186,27.0469 Q321.1436,27.0469 321.7374,26.7813 Q322.3311,26.5 322.9561,25.9219 L322.9561,28.6406 Z " fill="#000000"/><text fill="#000000" font-family="sans-serif" font-size="14" lengthAdjust="spacing" textLength="49.998" x="340.4874" y="27.8467">Genres</text><line style="stroke:#181818;stroke-width:0.5;" x1="271.69" x2="426.7828" y1="39" y2="39"/><text fill="#000000" font-family="sans-serif" font-size="14" lengthAdjust="spacing" textLength="96.7627" x="276.69" y="55.9951">+GenreID: int</text><text fill="#000000" font-family="sans-serif" font-size="14" lengthAdjust="spacing" textLength="145.0928" x="276.69" y="72.292">+GenreName: string</text><text fill="#000000" font-family="sans-serif" font-size="14" lengthAdjust="spacing" textLength="140.8203" x="276.69" y="88.5889">+Description: string</text><line style="stroke:#181818;stroke-width:0.5;" x1="271.69" x2="426.7828" y1="95.8906" y2="95.8906"/></g><!--class Authors--><g class="entity" data-entity="Authors" data-source-line="9" data-uid="ent0003" id="entity_Authors"><rect fill="#F1F1F1" height="227.2656" rx="2.5" ry="2.5" style="stroke:#181818;stroke-width:0.5;" width="166.3965" x="34.04" y="196.49"/><ellipse cx="85.7744" cy="212.49" fill="#ADD1B2" rx="11" ry="11" style="stroke:#181818;stroke-width:1;"/><path d="M88.7431,218.1306 Q88.165,218.4275 87.5244,218.5681 Q86.8837,218.7244 86.1806,218.7244 Q83.6806,218.7244 82.3525,217.0838 Q81.04,215.4275 81.04,212.3025 Q81.04,209.1775 82.3525,207.5213 Q83.6806,205.865 86.1806,205.865 Q86.8837,205.865 87.5244,206.0213 Q88.1806,206.1775 88.7431,206.4744 L88.7431,209.1931 Q88.1181,208.615 87.5244,208.3494 Q86.9306,208.0681 86.3056,208.0681 Q84.9619,208.0681 84.2744,209.1463 Q83.5869,210.2088 83.5869,212.3025 Q83.5869,214.3963 84.2744,215.4744 Q84.9619,216.5369 86.3056,216.5369 Q86.9306,216.5369 87.5244,216.2713 Q88.1181,215.99 88.7431,215.4119 L88.7431,218.1306 Z " fill="#000000"/><text fill="#000000" font-family="sans-serif" font-size="14" lengthAdjust="spacing" textLength="54.4277" x="106.2744" y="217.3367">Authors</text><line style="stroke:#181818;stroke-width:0.5;" x1="35.04" x2="199.4365" y1="228.49" y2="228.49"/><text fill="#000000" font-family="sans-serif" font-size="14" lengthAdjust="spacing" textLength="101.1924" x="40.04" y="245.4851">+AuthorID: int</text><text fill="#000000" font-family="sans-serif" font-size="14" lengthAdjust="spacing" textLength="131.5508" x="40.04" y="261.782">+LastName: string</text><text fill="#000000" font-family="sans-serif" font-size="14" lengthAdjust="spacing" textLength="132.8701" x="40.04" y="278.0789">+FirstName: string</text><text fill="#000000" font-family="sans-serif" font-size="14" lengthAdjust="spacing" textLength="148.6338" x="40.04" y="294.3757">+MiddleName: string</text><text fill="#000000" font-family="sans-serif" font-size="14" lengthAdjust="spacing" textLength="119.54" x="40.04" y="310.6726">+BirthDate: date</text><text fill="#000000" font-family="sans-serif" font-size="14" lengthAdjust="spacing" textLength="128.2627" x="40.04" y="326.9695">+DeathDate: date</text><text fill="#000000" font-family="sans-serif" font-size="14" lengthAdjust="spacing" textLength="116.7031" x="40.04" y="343.2664">+Country: string</text><text fill="#000000" font-family="sans-serif" font-size="14" lengthAdjust="spacing" textLength="132.4121" x="40.04" y="359.5632">+Biography: string</text><text fill="#000000" font-family="sans-serif" font-size="14" lengthAdjust="spacing" textLength="131.8311" x="40.04" y="375.8601">+AwardInfo: string</text><text fill="#000000" font-family="sans-serif" font-size="14" lengthAdjust="spacing" textLength="154.3965" x="40.04" y="392.157">+ContactEmail: string</text><text fill="#000000" font-family="sans-serif" font-size="14" lengthAdjust="spacing" textLength="121.5361" x="40.04" y="408.4539">+Rating: decimal</text><line style="stroke:#181818;stroke-width:0.5;" x1="35.04" x2="199.4365" y1="415.7556" y2="415.7556"/></g><!--class Books--><g class="entity" data-entity="Books" data-source-line="23" data-uid="ent0004" id="entity_Books"><rect fill="#F1F1F1" height="276.1563" rx="2.5" ry="2.5" style="stroke:#181818;stroke-width:0.5;" width="167.1074" x="265.68" y="172.04"/><ellipse cx="323.9154" cy="188.04" fill="#ADD1B2" rx="11" ry="11" style="stroke:#181818;stroke-width:1;"/><path d="M326.8841,193.6806 Q326.306,193.9775 325.6654,194.1181 Q325.0247,194.2744 324.3216,194.2744 Q321.8216,194.2744 320.4935,192.6337 Q319.181,190.9775 319.181,187.8525 Q319.181,184.7275 320.4935,183.0712 Q321.8216,181.415 324.3216,181.415 Q325.0247,181.415 325.6654,181.5712 Q326.3216,181.7275 326.8841,182.0244 L326.8841,184.7431 Q326.2591,184.165 325.6654,183.8994 Q325.0716,183.6181 324.4466,183.6181 Q323.1029,183.6181 322.4154,184.6962 Q321.7279,185.7587 321.7279,187.8525 Q321.7279,189.9462 322.4154,191.0244 Q323.1029,192.0869 324.4466,192.0869 Q325.0716,192.0869 325.6654,191.8212 Q326.2591,191.54 326.8841,190.9619 L326.8841,193.6806 Z " fill="#000000"/><text fill="#000000" font-family="sans-serif" font-size="14" lengthAdjust="spacing" textLength="42.1367" x="344.4154" y="192.8867">Books</text><line style="stroke:#181818;stroke-width:0.5;" x1="266.68" x2="431.7874" y1="204.04" y2="204.04"/><text fill="#000000" font-family="sans-serif" font-size="14" lengthAdjust="spacing" textLength="88.9014" x="271.68" y="221.0351">+BookID: int</text><text fill="#000000" font-family="sans-serif" font-size="14" lengthAdjust="spacing" textLength="94.1787" x="271.68" y="237.332">+ISBN: string</text><text fill="#000000" font-family="sans-serif" font-size="14" lengthAdjust="spacing" textLength="91.5195" x="271.68" y="253.6289">+Title: string</text><text fill="#000000" font-family="sans-serif" font-size="14" lengthAdjust="spacing" textLength="146.3027" x="271.68" y="269.9257">+OriginalTitle: string</text><text fill="#000000" font-family="sans-serif" font-size="14" lengthAdjust="spacing" textLength="120.7979" x="271.68" y="286.2226">+PublishYear: int</text><text fill="#000000" font-family="sans-serif" font-size="14" lengthAdjust="spacing" textLength="155.1074" x="271.68" y="302.5195">+PublishHouse: string</text><text fill="#000000" font-family="sans-serif" font-size="14" lengthAdjust="spacing" textLength="130.1768" x="271.68" y="318.8164">+Language: string</text><text fill="#000000" font-family="sans-serif" font-size="14" lengthAdjust="spacing" textLength="115.2471" x="271.68" y="335.1132">+PageCount: int</text><text fill="#000000" font-family="sans-serif" font-size="14" lengthAdjust="spacing" textLength="110.4893" x="271.68" y="351.4101">+Price: decimal</text><text fill="#000000" font-family="sans-serif" font-size="14" lengthAdjust="spacing" textLength="140.8203" x="271.68" y="367.707">+Description: string</text><text fill="#000000" font-family="sans-serif" font-size="14" lengthAdjust="spacing" textLength="150.0078" x="271.68" y="384.0039">+CoverImage: binary</text><text fill="#000000" font-family="sans-serif" font-size="14" lengthAdjust="spacing" textLength="121.5361" x="271.68" y="400.3007">+Rating: decimal</text><text fill="#000000" font-family="sans-serif" font-size="14" lengthAdjust="spacing" textLength="121.249" x="271.68" y="416.5976">+TotalCopies: int</text><text fill="#000000" font-family="sans-serif" font-size="14" lengthAdjust="spacing" textLength="150.3633" x="271.68" y="432.8945">+AvailableCopies: int</text><line style="stroke:#181818;stroke-width:0.5;" x1="266.68" x2="431.7874" y1="440.1962" y2="440.1962"/></g><!--class BookAuthors--><g class="entity" data-entity="BookAuthors" data-source-line="40" data-uid="ent0005" id="entity_BookAuthors"><rect fill="#F1F1F1" height="113.1875" rx="2.5" ry="2.5" style="stroke:#181818;stroke-width:0.5;" width="220.4756" x="7" y="557.09"/><ellipse cx="68.3525" cy="573.09" fill="#ADD1B2" rx="11" ry="11" style="stroke:#181818;stroke-width:1;"/><path d="M71.3213,578.7306 Q70.7432,579.0275 70.1025,579.1681 Q69.4619,579.3244 68.7588,579.3244 Q66.2588,579.3244 64.9307,577.6837 Q63.6182,576.0275 63.6182,572.9025 Q63.6182,569.7775 64.9307,568.1212 Q66.2588,566.465 68.7588,566.465 Q69.4619,566.465 70.1025,566.6212 Q70.7588,566.7775 71.3213,567.0744 L71.3213,569.7931 Q70.6963,569.215 70.1025,568.9494 Q69.5088,568.6681 68.8838,568.6681 Q67.54,568.6681 66.8525,569.7462 Q66.165,570.8087 66.165,572.9025 Q66.165,574.9962 66.8525,576.0744 Q67.54,577.1369 68.8838,577.1369 Q69.5088,577.1369 70.1025,576.8712 Q70.6963,576.59 71.3213,576.0119 L71.3213,578.7306 Z " fill="#000000"/><text fill="#000000" font-family="sans-serif" font-size="14" lengthAdjust="spacing" textLength="89.2705" x="88.8525" y="577.9367">BookAuthors</text><line style="stroke:#181818;stroke-width:0.5;" x1="8" x2="226.4756" y1="589.09" y2="589.09"/><text fill="#000000" font-family="sans-serif" font-size="14" lengthAdjust="spacing" textLength="88.9014" x="13" y="606.0851">+BookID: int</text><text fill="#000000" font-family="sans-serif" font-size="14" lengthAdjust="spacing" textLength="101.1924" x="13" y="622.382">+AuthorID: int</text><text fill="#000000" font-family="sans-serif" font-size="14" lengthAdjust="spacing" textLength="182.3486" x="13" y="638.6789">+ContributionType: string</text><text fill="#000000" font-family="sans-serif" font-size="14" lengthAdjust="spacing" textLength="208.4756" x="13" y="654.9757">+RoyaltyPercentage: decimal</text><line style="stroke:#181818;stroke-width:0.5;" x1="8" x2="226.4756" y1="662.2775" y2="662.2775"/></g><!--class Readers--><g class="entity" data-entity="Readers" data-source-line="47" data-uid="ent0006" id="entity_Readers"><rect fill="#F1F1F1" height="292.4531" rx="2.5" ry="2.5" style="stroke:#181818;stroke-width:0.5;" width="229.1162" x="467.68" y="163.9"/><ellipse cx="549.2532" cy="179.9" fill="#ADD1B2" rx="11" ry="11" style="stroke:#181818;stroke-width:1;"/><path d="M552.222,185.5406 Q551.6439,185.8375 551.0032,185.9781 Q550.3626,186.1344 549.6595,186.1344 Q547.1595,186.1344 545.8314,184.4937 Q544.5189,182.8375 544.5189,179.7125 Q544.5189,176.5875 545.8314,174.9312 Q547.1595,173.275 549.6595,173.275 Q550.3626,173.275 551.0032,173.4312 Q551.6595,173.5875 552.222,173.8844 L552.222,176.6031 Q551.597,176.025 551.0032,175.7594 Q550.4095,175.4781 549.7845,175.4781 Q548.4407,175.4781 547.7532,176.5562 Q547.0657,177.6187 547.0657,179.7125 Q547.0657,181.8062 547.7532,182.8844 Q548.4407,183.9469 549.7845,183.9469 Q550.4095,183.9469 551.0032,183.6812 Q551.597,183.4 552.222,182.8219 L552.222,185.5406 Z " fill="#000000"/><text fill="#000000" font-family="sans-serif" font-size="14" lengthAdjust="spacing" textLength="57.4697" x="569.7532" y="184.7467">Readers</text><line style="stroke:#181818;stroke-width:0.5;" x1="468.68" x2="695.7962" y1="195.9" y2="195.9"/><text fill="#000000" font-family="sans-serif" font-size="14" lengthAdjust="spacing" textLength="104.2344" x="473.68" y="212.8951">+ReaderID: int</text><text fill="#000000" font-family="sans-serif" font-size="14" lengthAdjust="spacing" textLength="131.5508" x="473.68" y="229.192">+LastName: string</text><text fill="#000000" font-family="sans-serif" font-size="14" lengthAdjust="spacing" textLength="132.8701" x="473.68" y="245.4889">+FirstName: string</text><text fill="#000000" font-family="sans-serif" font-size="14" lengthAdjust="spacing" textLength="148.6338" x="473.68" y="261.7857">+MiddleName: string</text><text fill="#000000" font-family="sans-serif" font-size="14" lengthAdjust="spacing" textLength="164.4453" x="473.68" y="278.0826">+PassportSeries: string</text><text fill="#000000" font-family="sans-serif" font-size="14" lengthAdjust="spacing" textLength="177.6318" x="473.68" y="294.3795">+PassportNumber: string</text><text fill="#000000" font-family="sans-serif" font-size="14" lengthAdjust="spacing" textLength="119.54" x="473.68" y="310.6764">+BirthDate: date</text><text fill="#000000" font-family="sans-serif" font-size="14" lengthAdjust="spacing" textLength="117.3936" x="473.68" y="326.9732">+Address: string</text><text fill="#000000" font-family="sans-serif" font-size="14" lengthAdjust="spacing" textLength="104.4531" x="473.68" y="343.2701">+Phone: string</text><text fill="#000000" font-family="sans-serif" font-size="14" lengthAdjust="spacing" textLength="99.9277" x="473.68" y="359.567">+Email: string</text><text fill="#000000" font-family="sans-serif" font-size="14" lengthAdjust="spacing" textLength="170.9805" x="473.68" y="375.8639">+RegistrationDate: date</text><text fill="#000000" font-family="sans-serif" font-size="14" lengthAdjust="spacing" textLength="181.9521" x="473.68" y="392.1607">+MembershipType: string</text><text fill="#000000" font-family="sans-serif" font-size="14" lengthAdjust="spacing" textLength="217.1162" x="473.68" y="408.4576">+DiscountPercentage: decimal</text><text fill="#000000" font-family="sans-serif" font-size="14" lengthAdjust="spacing" textLength="152.168" x="473.68" y="424.7545">+TotalBooksRead: int</text><text fill="#000000" font-family="sans-serif" font-size="14" lengthAdjust="spacing" textLength="105.6973" x="473.68" y="441.0514">+Status: string</text><line style="stroke:#181818;stroke-width:0.5;" x1="468.68" x2="695.7962" y1="448.3531" y2="448.3531"/></g><!--class BookIssues--><g class="entity" data-entity="BookIssues" data-source-line="65" data-uid="ent0007" id="entity_BookIssues"><rect fill="#F1F1F1" height="194.6719" rx="2.5" ry="2.5" style="stroke:#181818;stroke-width:0.5;" width="210.5771" x="476.95" y="516.35"/><ellipse cx="538.8187" cy="532.35" fill="#ADD1B2" rx="11" ry="11" style="stroke:#181818;stroke-width:1;"/><path d="M541.7874,537.9906 Q541.2093,538.2875 540.5687,538.4281 Q539.928,538.5844 539.2249,538.5844 Q536.7249,538.5844 535.3968,536.9438 Q534.0843,535.2875 534.0843,532.1625 Q534.0843,529.0375 535.3968,527.3813 Q536.7249,525.725 539.2249,525.725 Q539.928,525.725 540.5687,525.8813 Q541.2249,526.0375 541.7874,526.3344 L541.7874,529.0531 Q541.1624,528.475 540.5687,528.2094 Q539.9749,527.9281 539.3499,527.9281 Q538.0062,527.9281 537.3187,529.0063 Q536.6312,530.0688 536.6312,532.1625 Q536.6312,534.2563 537.3187,535.3344 Q538.0062,536.3969 539.3499,536.3969 Q539.9749,536.3969 540.5687,536.1313 Q541.1624,535.85 541.7874,535.2719 L541.7874,537.9906 Z " fill="#000000"/><text fill="#000000" font-family="sans-serif" font-size="14" lengthAdjust="spacing" textLength="78.3398" x="559.3187" y="537.1967">BookIssues</text><line style="stroke:#181818;stroke-width:0.5;" x1="477.95" x2="686.5271" y1="548.35" y2="548.35"/><text fill="#000000" font-family="sans-serif" font-size="14" lengthAdjust="spacing" textLength="90.2617" x="482.95" y="565.3451">+IssueID: int</text><text fill="#000000" font-family="sans-serif" font-size="14" lengthAdjust="spacing" textLength="88.9014" x="482.95" y="581.642">+BookID: int</text><text fill="#000000" font-family="sans-serif" font-size="14" lengthAdjust="spacing" textLength="104.2344" x="482.95" y="597.9389">+ReaderID: int</text><text fill="#000000" font-family="sans-serif" font-size="14" lengthAdjust="spacing" textLength="122.1309" x="482.95" y="614.2357">+IssueDate: date</text><text fill="#000000" font-family="sans-serif" font-size="14" lengthAdjust="spacing" textLength="198.5771" x="482.95" y="630.5326">+ExpectedReturnDate: date</text><text fill="#000000" font-family="sans-serif" font-size="14" lengthAdjust="spacing" textLength="177.3652" x="482.95" y="646.8295">+ActualReturnDate: date</text><text fill="#000000" font-family="sans-serif" font-size="14" lengthAdjust="spacing" textLength="105.6973" x="482.95" y="663.1264">+Status: string</text><text fill="#000000" font-family="sans-serif" font-size="14" lengthAdjust="spacing" textLength="165.5664" x="482.95" y="679.4232">+OverdueFine: decimal</text><text fill="#000000" font-family="sans-serif" font-size="14" lengthAdjust="spacing" textLength="101.5205" x="482.95" y="695.7201">+Notes: string</text><line style="stroke:#181818;stroke-width:0.5;" x1="477.95" x2="686.5271" y1="703.0219" y2="703.0219"/></g><!--class BookReviews--><g class="entity" data-entity="BookReviews" data-source-line="77" data-uid="ent0008" id="entity_BookReviews"><rect fill="#F1F1F1" height="162.0781" rx="2.5" ry="2.5" style="stroke:#181818;stroke-width:0.5;" width="179.9795" x="262.25" y="532.65"/><ellipse cx="302.1187" cy="548.65" fill="#ADD1B2" rx="11" ry="11" style="stroke:#181818;stroke-width:1;"/><path d="M305.0874,554.2906 Q304.5093,554.5875 303.8687,554.7281 Q303.228,554.8844 302.5249,554.8844 Q300.0249,554.8844 298.6968,553.2438 Q297.3843,551.5875 297.3843,548.4625 Q297.3843,545.3375 298.6968,543.6813 Q300.0249,542.025 302.5249,542.025 Q303.228,542.025 303.8687,542.1813 Q304.5249,542.3375 305.0874,542.6344 L305.0874,545.3531 Q304.4624,544.775 303.8687,544.5094 Q303.2749,544.2281 302.6499,544.2281 Q301.3062,544.2281 300.6187,545.3063 Q299.9312,546.3688 299.9312,548.4625 Q299.9312,550.5563 300.6187,551.6344 Q301.3062,552.6969 302.6499,552.6969 Q303.2749,552.6969 303.8687,552.4313 Q304.4624,552.15 305.0874,551.5719 L305.0874,554.2906 Z " fill="#000000"/><text fill="#000000" font-family="sans-serif" font-size="14" lengthAdjust="spacing" textLength="92.7158" x="321.645" y="553.4967">BookReviews</text><line style="stroke:#181818;stroke-width:0.5;" x1="263.25" x2="441.2295" y1="564.65" y2="564.65"/><text fill="#000000" font-family="sans-serif" font-size="14" lengthAdjust="spacing" textLength="104.6377" x="268.25" y="581.6451">+ReviewID: int</text><text fill="#000000" font-family="sans-serif" font-size="14" lengthAdjust="spacing" textLength="88.9014" x="268.25" y="597.942">+BookID: int</text><text fill="#000000" font-family="sans-serif" font-size="14" lengthAdjust="spacing" textLength="104.2344" x="268.25" y="614.2389">+ReaderID: int</text><text fill="#000000" font-family="sans-serif" font-size="14" lengthAdjust="spacing" textLength="136.5068" x="268.25" y="630.5357">+ReviewDate: date</text><text fill="#000000" font-family="sans-serif" font-size="14" lengthAdjust="spacing" textLength="121.5361" x="268.25" y="646.8326">+Rating: decimal</text><text fill="#000000" font-family="sans-serif" font-size="14" lengthAdjust="spacing" textLength="142.6045" x="268.25" y="663.1295">+ReviewText: string</text><text fill="#000000" font-family="sans-serif" font-size="14" lengthAdjust="spacing" textLength="167.9795" x="268.25" y="679.4264">+IsRecommended: bool</text><line style="stroke:#181818;stroke-width:0.5;" x1="263.25" x2="441.2295" y1="686.7281" y2="686.7281"/></g><!--link Genres to Books--><g class="link" data-entity-1="Genres" data-entity-2="Books" data-source-line="87" data-uid="lnk9" id="link_Genres_Books"><path codeLine="87" d="M349.24,104.27 C349.24,123.8 349.24,147.48 349.24,171.7" fill="none" id="Genres-Books" style="stroke:#181818;stroke-width:1;"/><text fill="#000000" font-family="sans-serif" font-size="13" lengthAdjust="spacing" textLength="8.271" x="340.7212" y="123.9144">1</text><text fill="#000000" font-family="sans-serif" font-size="13" lengthAdjust="spacing" textLength="23.0356" x="325.6124" y="160.7906">0..*</text></g><!--link Books to BookAuthors--><g class="link" data-entity-1="Books" data-entity-2="BookAuthors" data-source-line="88" data-uid="lnk10" id="link_Books_BookAuthors"><path codeLine="88" d="M265.48,419.99 C229.79,466.39 189.67,518.53 160.18,556.87" fill="none" id="Books-BookAuthors" style="stroke:#181818;stroke-width:1;"/><text fill="#000000" font-family="sans-serif" font-size="13" lengthAdjust="spacing" textLength="8.271" x="249.4027" y="426.5004">1</text><text fill="#000000" font-family="sans-serif" font-size="13" lengthAdjust="spacing" textLength="23.0356" x="141.0142" y="546.1067">0..*</text></g><!--link Authors to BookAuthors--><g class="link" data-entity-1="Authors" data-entity-2="BookAuthors" data-source-line="89" data-uid="lnk11" id="link_Authors_BookAuthors"><path codeLine="89" d="M117.24,423.84 C117.24,469.18 117.24,519.43 117.24,556.69" fill="none" id="Authors-BookAuthors" style="stroke:#181818;stroke-width:1;"/><text fill="#000000" font-family="sans-serif" font-size="13" lengthAdjust="spacing" textLength="8.271" x="108.9925" y="443.6766">1</text><text fill="#000000" font-family="sans-serif" font-size="13" lengthAdjust="spacing" textLength="23.0356" x="92.8409" y="545.9048">0..*</text></g><!--link Books to BookIssues--><g class="link" data-entity-1="Books" data-entity-2="BookIssues" data-source-line="90" data-uid="lnk12" id="link_Books_BookIssues"><path codeLine="90" d="M433.29,433.74 C438.95,441.45 444.63,449.04 450.24,456.35 C465.37,476.08 482.1,496.7 498.42,516.27" fill="none" id="Books-BookIssues" style="stroke:#181818;stroke-width:1;"/><text fill="#000000" font-family="sans-serif" font-size="13" lengthAdjust="spacing" textLength="8.271" x="440.869" y="440.7918">1</text><text fill="#000000" font-family="sans-serif" font-size="13" lengthAdjust="spacing" textLength="23.0356" x="468.1235" y="505.3094">0..*</text></g><!--link Readers to BookIssues--><g class="link" data-entity-1="Readers" data-entity-2="BookIssues" data-source-line="91" data-uid="lnk13" id="link_Readers_BookIssues"><path codeLine="91" d="M582.24,456.6 C582.24,476.79 582.24,497.09 582.24,516.08" fill="none" id="Readers-BookIssues" style="stroke:#181818;stroke-width:1;"/><text fill="#000000" font-family="sans-serif" font-size="13" lengthAdjust="spacing" textLength="8.271" x="574.0408" y="476.6096">1</text><text fill="#000000" font-family="sans-serif" font-size="13" lengthAdjust="spacing" textLength="23.0356" x="558.3969" y="505.4331">0..*</text></g><!--link Books to BookReviews--><g class="link" data-entity-1="Books" data-entity-2="BookReviews" data-source-line="92" data-uid="lnk14" id="link_Books_BookReviews"><path codeLine="92" d="M350.61,448.67 C350.89,477.25 351.18,506.47 351.44,532.18" fill="none" id="Books-BookReviews" style="stroke:#181818;stroke-width:1;"/><text fill="#000000" font-family="sans-serif" font-size="13" lengthAdjust="spacing" textLength="8.271" x="342.4817" y="468.2711">1</text><text fill="#000000" font-family="sans-serif" font-size="13" lengthAdjust="spacing" textLength="23.0356" x="327.3845" y="521.6034">0..*</text></g><!--link Readers to BookReviews--><g class="link" data-entity-1="Readers" data-entity-2="BookReviews" data-source-line="93" data-uid="lnk15" id="link_Readers_BookReviews"><path codeLine="93" d="M471.28,456.6 C451.41,482.66 431.37,508.93 413.55,532.29" fill="none" id="Readers-BookReviews" style="stroke:#181818;stroke-width:1;"/><text fill="#000000" font-family="sans-serif" font-size="13" lengthAdjust="spacing" textLength="8.271" x="457.3595" y="476.6096">1</text><text fill="#000000" font-family="sans-serif" font-size="13" lengthAdjust="spacing" textLength="23.0356" x="394.8321" y="521.7228">0..*</text></g><!--SRC=[fLJ1Rjim3BtxAumS5xJehhqvJRiPQDCWoML7MkPiehPaI5JQRDY_JvQTM7QIOi0k2VrCFZq-KZPl91lGKCUY0cCIPasPPKo5ablwXV5T5FatyJUK6atyEvhxA5tUnoIvVrf1ZVUnSSMoYEPBD49JmwJa2Vnpv4aibqfxeYuyCJs3uJ7H4-afz49vNatEMv3cSWdieDpzjW9W33meAraVmX9LQ6ZA04hUGUUf_Aa6w4591i6FDL0re1jWz- -eKL0DrT3QGgattrWRdDfAjulLKBmZhWBfhveAab1DuBNDAZBb3mJTi_J8TsLDaFSCih1GX9NkoNTxhDCaSD1wSJQkpptgjFP4cPEZ3-TTpdUAeNfG3Q7fkPEzymMo2aDqv4Omx94dayctFlkzSwfsXoPePwCEKF5XZLgWcqM15spV8EJO7TA5_xzHQyVRACrRrBwnARwoTORwamrCyjpTbh2oL38uOBfIM92BeJKWf7d1zXnJKZEsPKb6j4E-v4itAB-BhHsz5Li6jkRyElgn66Exg-sZatsZaKsizPcXrCUF1WLZla6sUjH48jX2TOvF9CrVtHBc5fz8Xjsi5ECLtHlS4xxtWs_3VrBUfOP2pbQzIzdX1m_gKkUcK7MDCaTdQgQKNy7-ipZxEejlRkBPtUtjbrdt8OYwpy7vc_vIHCVBSJtZ6aCtiEYu-5SJhjNtndr2q6Vy1G00]--></g></svg>